<?xml version="1.0" encoding="UTF-8"?>
<svg id="Layer_1" data-name="Layer 1" xmlns="http://www.w3.org/2000/svg" viewBox="0 0 1376 768" preserveAspectRatio="xMidYMid slice">
  <defs>
    <style>
      .cls-1 {
        fill: #e9cc7b;
      }

      .cls-2 {
        fill: #19191b;
      }
    </style>
  </defs>
  <path class="cls-1" d="M183,0c-.3,13.04-16.42,23.52-12.54,37.04,1.9,6.61,13.92,17.14,18.37,23.63,6.39,9.33,10.14,20.28,16.35,29.65,14.87,22.45,41.25,27.63,54.65,50.35,15.06,25.55,16.92,59.62,32.68,85.33l1.56-14.44c4.61-22.23,10.54-47.26,22.12-66.88,7.43-12.58,17.53-22.44,18.85-38.15,1.45-17.26-1.28-32.27,4.22-49.78,6.03-19.19,23.8-36.13,27.76-56.74h5c-1.42,5.99-3.22,12.08-5.81,17.69-6.61,14.36-17.55,26.83-21.71,42.29-5.86,21.81,2.08,43.92-7.29,64.71-3.04,6.75-7.83,12.35-11.38,18.62-12.37,21.83-25.85,63.47-21.75,88.13,3.79,22.82,19.14,30.87,32.94,47.06,10.77,12.62,20.61,30.82,26.77,46.23,5.74,14.37,8.41,30.33,16.4,43.6,9.02,14.96,29.69,33.98,46.29,39.71,12.78,4.42,37.82,5.51,48.26-4.31s19.01-34.01,27.83-46.67c14.53-20.83,36.08-35.7,50.29-56.71,18.66-27.6,24.33-67.25,27.18-99.82,1.72-19.61,1.12-39.51,6.24-58.76,7.67-28.85,29.66-51.34,35.48-80.52,3.42-17.11.22-27.35-.78-43.72-.35-5.75.32-11.76.03-17.53h3c.31,5.74-.41,11.83-.03,17.53.75,11.37,3.98,22.41,3.06,34-2.8,35.28-29.5,59.83-37.57,92.43-10.54,42.54-1.52,92.21-19.68,134.32l-10.77,21.73c1.56-.04,1.56-2.09,2.26-2.73,1.6-1.45,4.34-2.25,6.28-4.23,11.55-11.74,14.43-27.23,22.27-40.73,16.06-27.67,47.56-38.27,56.7-72.3,5.62-20.89-.67-43.56,6.71-64.29,10.54-29.6,13.27-52.81,5.53-83.98-2.56-10.3-8.38-20.71-4.75-31.75h3c1.64,4.25-.43,8.51.07,13.43.57,5.71,3.4,10.85,4.68,16.32,5.27,22.54,7.87,44.59,1.25,67.25,8.64-9.67,14.57-21.65,18.51-33.98,3.66-11.44,5.01-23.21,11.29-33.71s17.77-17.69,22.19-29.31h8c-4.38,14.51-19.02,22.75-25.19,36.31-5.14,11.28-5.1,25.16-9.03,36.97-6.69,20.1-25.88,37.8-27.71,58.29-2.12,23.73,13.45,46.64,22.13,67.74,6.1,14.83,9.8,31.67,9.81,47.69l20.47-26.03c21.83-25.18,50.61-39.7,78.85-56.15,9.41-5.48,18.32-11.91,27.99-17.01,19.41-10.26,41.21-16.89,60.01-27.99,27-15.94,48.07-37.47,62.87-65.13,8.84-16.52,17.56-35.7,11.81-54.69h6c5.57,19.99-.8,39.57-8.5,58-10.08,24.12-25.52,43.77-45,61-26.57,23.51-59.11,30.94-89.19,47.81-18.91,10.6-40.41,22.85-58.63,34.37-37.96,23.98-56.77,53.16-76.16,92.86-2.3,4.7-3.86,10.32-6.33,15.66-10.8,23.34-23.01,47.37-41.19,65.81.06.89,1.76.6,2.52.52,39.06-3.91,81.57-13.82,114.83-35.17,23.96-15.38,43.01-37.18,65.14-54.86s46.65-31.03,71.81-42.19c40.53-17.97,79.95-23.94,106.52-63.48,11.63-17.31,13.52-35.6,21.68-54.32,8.13-18.65,26.68-43.01,25.54-63.55-.56-10.03-5.76-23.49-5.08-32.98s5.13-20.51,9.03-29.47h5c-1.54,6.34-5.04,12.63-6.56,18.94-4.73,19.75,7.09,35.18,3.32,55.32-3.72,19.91-17.27,34.82-23.78,53.21-.31.87-1.65,3.04-.48,3.52,2.1-3.24,3.84-6.75,6.08-9.93,7.78-11.07,17.31-22.59,27.4-31.6,22.25-19.86,52.37-32.38,68.85-58.15,2.82-4.41,4.76-9.28,7.35-13.65,3.52-5.94,7.91-11.4,10.83-17.67h21l-27.17,43.33c-18.96,30.1-55.01,41.28-79.85,65.15-31.7,30.46-41.61,77.3-75.95,107.05-21.63,18.75-50.01,26.42-76.03,36.97l-20,9.49c3.76.25,7.81-.33,11.53-.03,20.61,1.66,41.29,4.55,61.94,6.06,25.74,1.88,31.31-8.85,50.18-20.88,20.75-13.23,45.58-12.87,67.04-23.96,25.13-12.99,42.56-33.99,71.3-41.7,11.06-2.97,18.66-2.55,29.55-3.45,42.84-3.58,81.34-16.7,119.78-35.22,24-11.56,48.8-27.1,76.69-22.81v4c-30.87-3.36-55.91,14.01-82.31,26.19-24.67,11.38-50.62,19.63-76.65,27.35l-25.05,4.96,31.22,11.78c31.26,9.39,55.08-1.37,84.55-9.01,15.77-4.09,25.38-5,41.67-3.21l26.56,4.94v10c-7.45-.97-15.1-4.27-22.56-4.94-20.15-1.81-30.91,3.37-47.37,13.5-10.28,6.33-20.07,14.67-30.38,20.62-19.53,11.27-49.25,22.48-71.43,26.57-21.33,3.93-45.03-1.05-66.68,2.32-24.72,3.85-47.52,17.34-72.35,22.65-33.94,7.26-61.14,2.58-94.75.31-15.6-1.06-31.48-.61-47-2-29.4-2.63-50.88-9.02-77.42,8.52-26.54,17.53-48.35,41.21-72.54,61.46-22.53,18.86-51.53,33.11-80.28,39.72-16.55,3.81-24.66,1.95-39.16,12.84-29.32,22.02-33.83,56.08-50.88,86.12-5.97,10.53-21.28,32.33-30.65,39.35-2,1.5-5.52,1.72-6.54,4.96,21.38-3.86,41.77-14.92,62.75-19.75,16.88-3.88,34.61-4.04,51.72-5.27,12.12-.88,26.18,3.04,38.01,4.06,30,2.58,62.69-3.71,93.06-2.06,28.35,1.54,45.14,7.12,70.45,18.55,12.66,5.72,25.67-.8,38.58-2.45,31-3.97,63.4,3.29,93.44-8.56,16.85-6.65,30.88-18.13,48.99-23.01,16.56-4.47,34.02-1.62,50.02-7.98s25.29-21.46,40.31-29.69c15.99-8.75,44.27-10.37,56.23-22.77,10.47-10.85,17.68-23.7,29.95-34.05,17.1-14.42,40.64-21.72,58.01-36.99,22.08-19.41,34.46-47.28,56.47-66.53,6.29-5.5,14.06-10.82,22.03-13.47v12c-6.19,2.31-12.52,6.7-17.5,11-22.25,19.22-40.91,45.5-57.06,69.94-10.06,15.22-19.25,32.61-31.43,46.57-13.54,15.51-31.62,26.43-44.96,41.84-.8.93-1.93.26-2.05,1.16l22.48-4.53c10,.38,18.3,1.95,26.85,7.21,4.82,2.96,8.42,7.11,12.74,10.26,8.09,5.9,21.5,11.49,31.5,12.5,19.58,1.97,39.61-8.47,59.43-6.93v5c-2.47.17-5.08-.24-7.53-.03-24.27,2.11-39.13,12.34-64.48,4.55-15.09-4.64-18.42-9.48-30.05-17.95-18.88-13.74-39.15-10.04-59.49-1.62-19.07,18.74-36.64,38.89-58.52,54.48-22.87,16.29-52.55,32.91-80.49,37.51-1.35.22-5.41-.4-5.44.57,6.22,3.51,13.17,6.03,19.33,9.68,12.15,7.18,22.25,17.84,34.35,24.65,14.43,8.12,33.93,13.38,50.1,16.9,27.72,6.03,65.68,13.8,92.5,3.05,18.78-7.53,29.27-27.62,50.29-29.71,13.45-1.34,39.54,7.73,53.65,11.21,1.96.48,3.69,1.08,5.78.72v12c-7.81-1.18-15.61-3.24-23.23-5.27-18.02-4.8-36.84-14.05-54.12-1.76-.74.52-.63,1.46-.94,1.69-12.7,9.76-24.67,21.04-41.71,22.34.17,1.48,1.4,1.63,2.55,1.95,3.29.93,7.22,1.3,10.69,2.31,19.66,5.73,32.96,20.73,52.75,26.25,5.99,1.67,12.19,2.4,18.24,3.76,12.29,2.77,23.86,8.89,35.78.72v5c-3.91.16-7.73,2.5-11.56,2.93-7.71.87-19.31-3.72-27.21-5.66-10-2.45-19.32-3.78-28.92-8.08-12.54-5.61-22.49-15.55-36.05-19.95-16.07-5.22-34.19-5.34-50.82-7.18-32.37-3.58-65.64-9.7-95.13-23.87l-12.31-7.19c-.33,1.49.6,2.17,1.19,3.3,4.48,8.54,11.75,22.09,17.8,29.2,13.82,16.24,38.49,17.96,55.93,30.07,16.17,11.23,27.01,30.47,43.72,41.28,1.93,1.25,5.17,2.02,6.71,3.12.82.59.4,1.91,1.26,2.05,1.12.18,2.41-.16,3.65.19,28.04,7.78,56.26,2.58,79.75,23.27,7.03,6.19,12.74,15.51,20.01,20.99,4.62,3.48,11.76,6.82,16.89,10.11,2.36,1.51,5.42,3.18,7.07,5.43h-7c.27-2.57-1.59-2.54-3.01-3.5-5.14-3.46-11.85-6.79-16.49-10.5-10.91-8.73-16.87-20.54-30.24-27.76-27.47-14.83-57.28-3.67-83.59-22.41-16.22-11.56-27.15-30.82-43.72-41.28-11.18-7.06-24.78-9.75-36.64-15.36-26.74-12.64-31.38-45.86-53.81-64.19-12.5-10.22-50.31-26.26-66.28-29.72-19.65-4.25-37.55,1.79-57.75.75-16.49-.85-37.61-2.56-53.89-5.11-23.84-3.73-36.29-18.47-58.32-25.68-31.09-10.18-64.74-8.04-96.72-5.21l-13.53,1.46c4.38,3.33,9.18,6.1,13.5,9.5,14.96,11.77,31.14,28.77,40.68,45.32,7.89,13.68,12.7,29.49,20.99,43.01,13.58,22.16,41.5,29.68,63.18,41.82,14.66,8.21,27.9,19.97,43.64,26.36,26.75,10.84,56.2,5.56,83.69,17.31,24.81,10.6,39.17,27.29,58.28,44.72,4.76,4.34,10.89,9.33,17.03,11.97,8.32,3.59,18.33,3.53,26,8.5h-44l-14.5-12c-14.53-14.54-29.82-30.51-48.8-39.2-21.11-9.66-43.97-6-65.92-12.08-9.7-2.68-19.07-6.82-27.76-11.73l10.87,19.63c8.81,19.47,16.52,40.21,32.13,55.37h-6c-2.42-3.06-5.11-5.91-7.42-9.08-15.15-20.77-21.88-46.87-37.14-67.86-15.18-20.88-46.66-29.21-68.12-41.88-25.76-15.21-32.12-37.12-46.12-60.88-17.91-30.4-59.4-64.22-95.65-66.35-25.72-1.51-49.69-.98-71.9,13.19-27.89,17.8-26.69,57.37-52.11,76.89-1.15.88-2.66.82-3.55,1.49-.78.59-.75,1.94-1.22,2.28-.76.54-2.22,1.36-3.45,2.19-14.91,10.13-32.73,13.8-49.01,20.81-44.08,18.98-59.57,55.45-69.08,99.92-1.02,4.79-.74,9.61-2.47,14.53-2.04,5.84-7.07,9.34-9.77,14.73h-2c.6-3.43,3.1-5.79,4.5-9,8.31-19.16,1.08-40.15-7-58l-.47,14.54c-1.59,10.75-3.39,21.07-6.51,31.49-2.1,7-5.67,13.82-6.52,20.98h-10c4.44-15.78,11.46-31.24,13.94-47.56,1.76-11.6.11-20.62-.88-32-1.8-20.82-2.95-39.8-10.29-59.71-7.86-21.32-24.27-42.7-27.71-65.3-.45-2.92,1.31-5.13-2.57-4.44-1.51,4.24-4.55,8.1-7.49,11.51-34.22,39.7-87.12,29.72-117.86,77.14-12.76,19.69-14.09,44.12-25.63,64.37-10.62,18.65-28.76,33.86-32.52,55.98h-5c2.2-21.05,18.93-36.65,29.43-54.07,5.21-8.64,8.79-17.52,11.84-27.16l5.72-19.77c-1.81.61-2.18,2.68-3.48,4.05-12.73,13.34-30.37,21.43-43.04,34.92-12.36,13.16-20.86,29.63-32.95,43.05-3.53,3.93-13.46,14.22-17.54,16.54-1.13.64-6.89-1.38-7.99,2.44h-12l17.32-9.18c28.05-16.65,27.84-41.46,45.24-65.76,13.84-19.34,33.83-34.48,43.63-56.37,6.89-15.39,8.52-33.51,13.29-49.71,5.39-18.3,13.83-35.56,27.52-48.98-8.47.29-17.06-.4-25.53-.04-18.99.82-41.96,3.3-60.91,6.09-12.89,1.9-15.95,3.53-26.64,10.36-26.5,16.92-35.99,40.72-55.91,63.09-23.77,26.68-52.71,23.21-80.33,38.67-4.28,2.4-7.96,5.47-11.96,8.03-1.54.98-2.61,2.21-4.71,1.79v-3c5.47-3.2,10.21-7.62,15.68-10.82,14.96-8.78,32.62-11,48.6-17.4,37.21-14.91,43.37-48.06,71.22-72.78,4.24-3.76,9.54-6.92,13.5-10.99-3.9.39-8.07,2.24-11.69,3.8-14.62,6.32-29.3,15.14-43.61,22.39-9.31,4.72-19.27,8.45-28.38,13.62-19.45,11.02-26.97,26.47-52.84,24.22-4.06-.35-8.25-2.44-12.47-2.03v-13c4.95,1.06,10.46,3.54,15.47,4.03,21.3,2.05,27.68-11.1,43.84-20.21,15.8-8.91,34.28-14.73,50.38-23.62s27.89-18.64,45.29-23.71c6.03-1.75,12.17-2.01,17.73-4.27l20.29-3.72-43.57-13.44c-21.63-1.77-41.09,5.7-62.69,1.69-19.06-3.54-32.85-17.44-50.47-24.53-11.34-4.56-24.08-6.65-36.27-7.23v-5c12.68.07,25.43,2.71,37.28,7.22,19.39,7.4,36.06,23.83,57.29,25.71,15.57,1.38,32.43-5.99,47.97-4.97,22.8,1.51,47.05,17.44,69.15,17.76,6.77.1,15.01-2.17,21.78-2.76,19.41-1.69,42.32,1.45,60.55-3.45,19.75-5.32,47.55-20.81,64.92-32.08,21.42-13.91,32.64-35.16,53.14-49.86l14.92-9.57c-3.25-.32-6.69-1.56-9.69-2.81-25.31-10.59-47.55-34.25-57.08-59.92-6.64-17.88-7.82-26.61-21.22-41.78-14.42-16.33-23.82-14.64-42-22-17.56-7.11-28.31-17.98-49.44-16.44-23.5,1.71-42.97-1.94-66.12-4-17.98-1.6-25.7-3.21-42.13-10.87-9.63-4.49-21.01-9.76-30.34-14.66-12.49-6.56-16.85-14.71-33-10.08-11.77,3.38-21.56,15.7-31.61,22.39-7.28,4.85-17.03,9.05-24.99,13.01-6.37,3.17-12.69,6.63-19.36,9.14v-12l32.69-15.81c13.31-6.62,23.04-20.86,37.27-25.73,1.34-.46,2.64-.57,4.04-.46-1.01-2.21-3.68-3.51-5.68-4.82-21.08-13.8-44.37-26.26-68.32-34.18v-9c30.02,6.7,56.44,21.26,82.35,37.15,15.75,9.66,32.39,18.33,47.59,28.41,16.09,10.68,26.18,19.63,46.62,22.38,12.71,1.71,27.78-.47,39.76,2.24,14.7,3.32,21.79-.31,36.15-1.2,6.6-.41,13.05,1.11,19.53,2.03-3.71-4.48-8-8.3-11.42-13.07-5.47-7.63-8.76-17.37-14.58-24.42-8.79-10.66-38.28-26.53-51.77-30.23-19.11-5.23-38.53-2.44-58-8-24.39-6.97-34.27-16.09-51.75-33.25-7.82-7.67-15.27-16.16-22.95-24.05-6.12-6.29-17.17-17.78-26.08-18.92-11.39-1.47-24.03,1.88-35.45-3.05v-4c5.33.5,11.21,2.65,16.47,3.03,5.67.41,10.75-1.42,15.97-.96,9.94.87,16.31,5.04,23.59,11.41,18.85,16.47,34.22,37.78,53.96,53.09.82.63.66,1.95,1.72,2.44,15.76,7.19,32.38,13.52,49.86,14.94,4.91.4,10.12-.34,14.97.03,22.32,1.73,62.37,21.19,75.91,39.09,4.54,6.01,7.91,13.75,12.56,19.44,6.7,8.19,25.91,25.03,35.47,28.53,12.24,4.48,25.73,5.91,36.53,13.97.59-.64-3.38-7.19-4.14-8.35-14.36-21.68-36.37-35.69-49.04-58.96-13.69-25.14-16.05-54.07-26.04-79.96-10.71-27.75-25.83-28.5-48.1-41.9-18.14-10.92-21.25-25.62-32.25-41.75-8.61-12.62-27.48-28.39-25.37-44.52.74-5.66,5.76-10.78,10.41-5.52l3.53,6.96c-.27-12.31,12.17-19.05,13-31h4ZM654,161c0,1.89-.79,3.6-1.04,5.46-.76,5.63-1.04,11.87-2.68,17.32-9.49,31.46-40.97,44.3-56.47,70.53-5.12,8.66-7.63,18.66-12.63,27.37-4.73,8.26-11.66,15.94-18.68,22.32-16.89,15.33-35.03,30.67-49.51,48.49-11.3,13.91-18.44,29.31-27.19,44.81-.49.87-1.69,2.77-1.31,3.69,11.7-3.89,23.91-6.89,36.07-8.93,9.15-1.53,18.6-2.86,27.99-4.01,30.74-3.74,50.21.17,74.95-22.05,16.45-14.78,41.02-62.06,49.69-83.31,11.26-27.62,4.64-60.99-5.42-87.96l-13.77-33.73ZM1293,198c-1.77-.14-3.48,0-5.25.25-16.8,2.3-29.33,7.18-47.28,5.78-26.26-2.04-48.36-22.24-76-20.06-34.13,2.69-52.64,26.73-79.78,42.22-27.34,15.6-61.44,12.5-84.76,36.24l-11.92,7.57c4.86,1.43,9.53.74,14.44,1.07,19.33,1.3,35.28,3.08,54.83-.29,30.98-5.34,58.66-23.99,90.2-25.8,10.8-.62,22.26.69,33.06.06,32.12-1.86,75.24-17.55,100.97-37.03l11.5-10ZM1023,548c5.07.55,10.08,1.22,15.01,2.49,11.22,2.89,19.33,9.49,31.42,8.45,27.18-2.34,61.06-22.18,82.9-38.11,28.11-20.5,50-49.05,75.64-72.36,16.28-14.79,34.86-27.01,46.86-46.14l26.17-41.33c-4.88,4.84-10.73,9.14-16.67,12.82-19.6,12.17-37.42,18.93-53.33,36.67-31.23,34.84-36.7,77.25-87.98,91.02-14.67,3.94-30.54,3.86-45.06,7.94-18.66,5.25-34.65,18.26-51.27,27.73l-23.69,10.81ZM644,393l-56.44,6.06c-21.68,4.01-43.33,8.43-65.12,11.88-18.53,2.93-35.36,1.54-50.94,14.06-21.71,17.44-30.51,38.28-46.07,59.93-12.25,17.03-31.39,34.86-33.36,56.64-2.47,27.41,14.21,48.15,23.71,72.16,3.48,8.8,6.42,17.96,8.23,27.27l10.8-24.69c13.8-28.99,23.15-39.17,51.5-54.5,15.39-8.32,32.98-13.66,47.62-22.38,19-11.32,42.28-30.96,54.9-49.1,15.15-21.78,22.22-48.59,35.34-71.66,5.46-9.6,12.09-17.86,19.83-25.67ZM435,435c-.64-.56-6.15,2.5-7.32,3.17-25.71,14.7-36.93,38.2-59.35,54.65-12.46,9.15-31.77,19.76-45.64,27.36s-24.23,10.05-38.7,15.3c-38.99,14.13-39.24,72.3-53.49,103.51-12.13,26.57-39.25,43.91-53.37,69.63l-1.63,5.37c5.91-6.81,10.82-14.38,17.48-20.52s14.6-10.75,21.53-16.47c25.41-20.96,38.93-52.41,66.57-71.43,26.41-18.17,59.04-20.32,81.45-45.55,11.28-12.7,15.65-27.19,23.28-41.72,6.2-11.8,14.34-22.52,21.02-33.98,9.53-16.35,16.52-34.23,28.18-49.32ZM891,530c.09,1.25,1.4,1.66,2.31,2.19,14.79,8.67,35.41,9.46,52.16,10.84,27.7,2.27,52.65,3.82,79.54-5.52,28.95-10.06,51.62-32.16,82.56-37.44,10.36-1.77,21.31-1.78,31.68-4.32,21.95-5.37,39.03-18.94,52.17-36.83,4.82-6.56,8.8-13.82,13.57-20.43l-15.98,6.02c-12.07,3.05-24.89,5.97-35.7,12.3-13.88,8.12-23.1,22.39-38.31,28.69-16.76,6.94-36.27,3.81-54.02,8.98-16.5,4.8-30.04,15.9-45.98,22.02-32.12,12.33-64.99,4.94-97.44,9.56-8.84,1.26-17.46,4.91-26.56,3.94ZM628,526c-12.83,1.84-24.72,7.57-36.98,11.51-32.15,10.35-60.59,19.08-90.71,35.29-27.93,15.03-41.43,26.77-55.5,55.5-7.73,15.77-16.94,34.13-13.56,51.95,3.01,15.87,10.46,30.71,12.76,46.74l5.97-19.52c9.46-27.93,25.16-52.07,51.34-66.66,21.29-11.87,51.36-17,69.19-33.81,20.72-19.53,21.97-52.28,44-71,4.21-3.58,9.71-5.98,13.5-9.99ZM174.5,715c-.65,0-.65,1,0,1s.65-1,0-1Z"/>
  <path class="cls-2" d="M174.5,715c.65,0,.65,1,0,1s-.65-1,0-1Z"/>
</svg>